# xmcd
# 
# Track frame offsets:
#     150
#     26347
#     51220
#     65305
#     127485
#     169587
#     186950
#     202350
#     222820
# 
# Disc length: 4390
# 
# Revision: 11
# Processed by: cddbd v1.5.2PL0 Copyright (c) Steve Scherf et al.
# Submitted via: fre:ac v1.0.31
# 
DISCID=8a112409
DTITLE=Various Artist - Clássicos Eternos
DYEAR=2000
DGENRE=Clássicos
TTITLE0=Slovaquian Philharmonic Orchestra - Mozart
TTITLE1=Peter Schamalfuss, piano - Chopin
TTITLE2=Orchestre Viennois de L'Opera' - Strauss
TTITLE3=RSO Ljubljana - Ravel
TTITLE4=Sudwest Sinfonieorchester - Handel
TTITLE5=Camerata Labacensis - Mozart
TTITLE6=Dubravka Tomsic, piano - Bach
TTITLE7=Festival Philharmonic Orchestra - Smetana
TTITLE8=Festival Philharmonic Orchestra - Beethoven
EXTD=
EXTT0=Serenade nº 13 - Romance:Andante
EXTT1=Nocturne Op. 32 N] 1
EXTT2=Annen Polka Op. 117
EXTT3=Bolero
EXTT4=Fire Work Music Overture
EXTT5=Concerto for Horn and Orchestra Nº 3
EXTT6=Italian Concerto - Allegro Vivace
EXTT7=Polka from The Sold Bride
EXTT8=Symphony Nº 9 - Presto
PLAYORDER=
